<?xml version="1.0"?>
<svg version="1.1" id="圖層_1" xmlns="http://www.w3.org/2000/svg" x="0" y="0" viewBox="0 0 100 100" xml:space="preserve"><path d="M84.9 76.9c9.3-18.1 5.9-39.9-9-51.3C59.2 12.9 34.5 18 20.6 37.1c-8.3 11.4-10.8 29.5-7.9 42.1.3 1.5 1.8 2.4 3.3 2.1 16.7-2.8 42.1-3.7 68.9-4.4z" fill="#f8b26a"/><path d="M80.2 29.6C65.3 26 48.3 32.4 37.6 47.1c-6.4 8.8-9.3 21.5-9 32.6 15.7-1.6 35.5-2.3 56.2-2.8 8.3-16.2 6.5-35.3-4.6-47.3z" fill="#abbd81"/><path d="M16 81.3c16-2.8 42-3.7 68.8-4.4 1.2-2.4 2.2-4.9 3-7.4-30 .4-58.7 1.1-76 4.9.2 1.6.5 3.2.8 4.7.5 1.6 1.9 2.5 3.4 2.2z" fill="#f47e60"/><path d="M49.4 63.1c2.7 0 5-1.7 5.7-4l3-10.1c1.6-5.4-2.2-10.9-8.2-12l-25.6-3.9c-.6-.1-1.3.1-1.7.4-4.4 3.8-7.3 8.4-9.7 13.7-2 4.5-2.3 9.1-2.8 14-.1 1 .8 1.9 2 1.9h37.3z" fill="#a0c8d7"/><path d="M17.8 46.3c-.3.5-.5 1.1-.8 1.6" fill="none" stroke="#fff" stroke-width="3.682" stroke-linecap="round" stroke-miterlimit="10"/><path d="M24.8 36.6c-1.6 1.5-3 3.1-4.2 4.9" fill="none" stroke="#fff" stroke-width="3.682" stroke-linecap="round" stroke-miterlimit="10"/><path d="M63.9 39.4l-1.3-.2-6.8 23.6h7.6c2.4 0 4.5-1.5 5.1-3.6l2.7-9.1c1.4-4.9-1.9-9.8-7.3-10.7z" opacity=".5" fill="#666"/><circle cx="65" cy="46.6" r="2.5" fill="#fff"/><metadata xmlns:d="https://loading.io/stock/"><d:name>helmet</d:name><d:tags>headwear,motocycle,scooter,protect,helmet,transportation</d:tags><d:license>by</d:license><d:slug>cxxbhc</d:slug></metadata></svg>